<svg height="320" width="320" shapeRendering="crispEdges" viewBox="0 0 29 29" style="width: 320px; height: 320px;" xmlns="http://www.w3.org/2000/svg"><path fill="#fff" d="M0,0 h29v29H0z"></path><path fill="#000" d="M0 0h7v1H0zM8 0h3v1H8zM12 0h1v1H12zM14 0h1v1H14zM22,0 h7v1H22zM0 1h1v1H0zM6 1h1v1H6zM8 1h3v1H8zM16 1h1v1H16zM18 1h2v1H18zM22 1h1v1H22zM28,1 h1v1H28zM0 2h1v1H0zM2 2h3v1H2zM6 2h1v1H6zM8 2h1v1H8zM10 2h2v1H10zM13 2h1v1H13zM15 2h1v1H15zM17 2h1v1H17zM22 2h1v1H22zM24 2h3v1H24zM28,2 h1v1H28zM0 3h1v1H0zM2 3h3v1H2zM6 3h1v1H6zM8 3h2v1H8zM11 3h1v1H11zM14 3h1v1H14zM16 3h1v1H16zM18 3h2v1H18zM22 3h1v1H22zM24 3h3v1H24zM28,3 h1v1H28zM0 4h1v1H0zM2 4h3v1H2zM6 4h1v1H6zM13 4h4v1H13zM22 4h1v1H22zM24 4h3v1H24zM28,4 h1v1H28zM0 5h1v1H0zM6 5h1v1H6zM8 5h1v1H8zM11 5h4v1H11zM16 5h5v1H16zM22 5h1v1H22zM28,5 h1v1H28zM0 6h7v1H0zM8 6h1v1H8zM10 6h1v1H10zM12 6h1v1H12zM14 6h1v1H14zM16 6h1v1H16zM18 6h1v1H18zM20 6h1v1H20zM22,6 h7v1H22zM9 7h1v1H9zM12 7h1v1H12zM14 7h6v1H14zM0 8h2v1H0zM4 8h3v1H4zM11 8h1v1H11zM13 8h2v1H13zM17 8h4v1H17zM23 8h1v1H23zM25,8 h4v1H25zM2 9h2v1H2zM8 9h3v1H8zM12 9h1v1H12zM15 9h4v1H15zM21,9 h8v1H21zM3 10h2v1H3zM6 10h1v1H6zM11 10h8v1H11zM20 10h1v1H20zM22 10h1v1H22zM28,10 h1v1H28zM1 11h1v1H1zM4 11h1v1H4zM7 11h2v1H7zM10 11h2v1H10zM13 11h1v1H13zM16 11h5v1H16zM22 11h4v1H22zM27,11 h2v1H27zM3 12h1v1H3zM5 12h2v1H5zM8 12h1v1H8zM10 12h1v1H10zM12 12h2v1H12zM16 12h2v1H16zM20 12h2v1H20zM23 12h1v1H23zM27 12h1v1H27zM1 13h2v1H1zM5 13h1v1H5zM7 13h3v1H7zM13 13h4v1H13zM20,13 h9v1H20zM0 14h2v1H0zM3 14h1v1H3zM6 14h1v1H6zM8 14h1v1H8zM15 14h1v1H15zM17 14h1v1H17zM20 14h7v1H20zM28,14 h1v1H28zM2 15h2v1H2zM5 15h1v1H5zM7 15h2v1H7zM10 15h1v1H10zM12 15h1v1H12zM14 15h1v1H14zM17 15h1v1H17zM20 15h2v1H20zM24 15h1v1H24zM27,15 h2v1H27zM1 16h1v1H1zM3 16h1v1H3zM5 16h2v1H5zM9 16h1v1H9zM11 16h1v1H11zM13 16h2v1H13zM17 16h1v1H17zM20 16h2v1H20zM27 16h1v1H27zM0 17h1v1H0zM3 17h3v1H3zM7 17h1v1H7zM9 17h1v1H9zM12 17h1v1H12zM15 17h4v1H15zM22 17h4v1H22zM27,17 h2v1H27zM2 18h2v1H2zM5 18h2v1H5zM8 18h1v1H8zM11 18h5v1H11zM17 18h1v1H17zM20 18h1v1H20zM26 18h1v1H26zM28,18 h1v1H28zM2 19h1v1H2zM4 19h1v1H4zM7 19h1v1H7zM10 19h2v1H10zM13 19h1v1H13zM17 19h1v1H17zM19 19h6v1H19zM27,19 h2v1H27zM0 20h2v1H0zM3 20h2v1H3zM6 20h2v1H6zM12 20h2v1H12zM15 20h1v1H15zM17 20h1v1H17zM20 20h6v1H20zM28,20 h1v1H28zM8 21h1v1H8zM10 21h1v1H10zM13 21h4v1H13zM18 21h3v1H18zM24 21h1v1H24zM28,21 h1v1H28zM0 22h7v1H0zM10 22h1v1H10zM15 22h6v1H15zM22 22h1v1H22zM24 22h3v1H24zM28,22 h1v1H28zM0 23h1v1H0zM6 23h1v1H6zM8 23h1v1H8zM10 23h1v1H10zM12 23h1v1H12zM14 23h1v1H14zM16 23h2v1H16zM19 23h2v1H19zM24 23h1v1H24zM27,23 h2v1H27zM0 24h1v1H0zM2 24h3v1H2zM6 24h1v1H6zM8 24h4v1H8zM13 24h2v1H13zM16 24h10v1H16zM27 24h1v1H27zM0 25h1v1H0zM2 25h3v1H2zM6 25h1v1H6zM9 25h2v1H9zM12 25h1v1H12zM15 25h4v1H15zM28,25 h1v1H28zM0 26h1v1H0zM2 26h3v1H2zM6 26h1v1H6zM9 26h10v1H9zM21 26h1v1H21zM25,26 h4v1H25zM0 27h1v1H0zM6 27h1v1H6zM8 27h2v1H8zM11 27h1v1H11zM13 27h1v1H13zM15 27h4v1H15zM20 27h1v1H20zM23 27h1v1H23zM25 27h1v1H25zM27,27 h2v1H27zM0 28h7v1H0zM8 28h1v1H8zM10 28h1v1H10zM12 28h2v1H12zM16 28h2v1H16zM20 28h1v1H20zM22 28h3v1H22zM27 28h1v1H27z"></path></svg>