<svg height="320" width="320" shapeRendering="crispEdges" viewBox="0 0 29 29" style="width: 320px; height: 320px;" xmlns="http://www.w3.org/2000/svg"><path fill="#fff" d="M0,0 h29v29H0z"></path><path fill="#000" d="M0 0h7v1H0zM9 0h3v1H9zM13 0h3v1H13zM17 0h1v1H17zM22,0 h7v1H22zM0 1h1v1H0zM6 1h1v1H6zM11 1h2v1H11zM15 1h1v1H15zM17 1h2v1H17zM20 1h1v1H20zM22 1h1v1H22zM28,1 h1v1H28zM0 2h1v1H0zM2 2h3v1H2zM6 2h1v1H6zM9 2h3v1H9zM14 2h1v1H14zM16 2h1v1H16zM22 2h1v1H22zM24 2h3v1H24zM28,2 h1v1H28zM0 3h1v1H0zM2 3h3v1H2zM6 3h1v1H6zM8 3h1v1H8zM10 3h2v1H10zM14 3h2v1H14zM17 3h1v1H17zM19 3h2v1H19zM22 3h1v1H22zM24 3h3v1H24zM28,3 h1v1H28zM0 4h1v1H0zM2 4h3v1H2zM6 4h1v1H6zM8 4h1v1H8zM10 4h1v1H10zM12 4h4v1H12zM17 4h4v1H17zM22 4h1v1H22zM24 4h3v1H24zM28,4 h1v1H28zM0 5h1v1H0zM6 5h1v1H6zM9 5h2v1H9zM13 5h2v1H13zM16 5h3v1H16zM22 5h1v1H22zM28,5 h1v1H28zM0 6h7v1H0zM8 6h1v1H8zM10 6h1v1H10zM12 6h1v1H12zM14 6h1v1H14zM16 6h1v1H16zM18 6h1v1H18zM20 6h1v1H20zM22,6 h7v1H22zM9 7h1v1H9zM12 7h2v1H12zM19 7h1v1H19zM0 8h2v1H0zM5 8h3v1H5zM9 8h2v1H9zM12 8h1v1H12zM14 8h2v1H14zM17 8h1v1H17zM20 8h1v1H20zM24 8h2v1H24zM0 9h2v1H0zM4 9h2v1H4zM7 9h2v1H7zM10 9h1v1H10zM14 9h1v1H14zM19 9h1v1H19zM21 9h1v1H21zM23 9h2v1H23zM26 9h2v1H26zM3 10h4v1H3zM8 10h2v1H8zM11 10h2v1H11zM17 10h2v1H17zM20 10h1v1H20zM23 10h2v1H23zM0 11h4v1H0zM5 11h1v1H5zM10 11h2v1H10zM14 11h3v1H14zM19 11h3v1H19zM25 11h1v1H25zM3 12h4v1H3zM9 12h2v1H9zM13 12h2v1H13zM16 12h1v1H16zM18 12h1v1H18zM20 12h1v1H20zM22 12h1v1H22zM28,12 h1v1H28zM2 13h4v1H2zM8 13h1v1H8zM10 13h1v1H10zM12 13h3v1H12zM17 13h3v1H17zM21 13h4v1H21zM27,13 h2v1H27zM5 14h2v1H5zM9 14h2v1H9zM13 14h4v1H13zM20 14h2v1H20zM25 14h2v1H25zM0 15h1v1H0zM2 15h1v1H2zM5 15h1v1H5zM7 15h1v1H7zM10 15h1v1H10zM12 15h3v1H12zM23 15h1v1H23zM26 15h1v1H26zM28,15 h1v1H28zM1 16h1v1H1zM3 16h1v1H3zM6 16h2v1H6zM9 16h2v1H9zM12 16h1v1H12zM14 16h2v1H14zM17 16h1v1H17zM19 16h1v1H19zM25 16h2v1H25zM0 17h1v1H0zM8 17h2v1H8zM15 17h2v1H15zM19 17h2v1H19zM22 17h3v1H22zM26,17 h3v1H26zM0 18h2v1H0zM4 18h3v1H4zM9 18h2v1H9zM12 18h4v1H12zM17 18h3v1H17zM24 18h2v1H24zM28,18 h1v1H28zM0 19h1v1H0zM4 19h2v1H4zM8 19h1v1H8zM11 19h1v1H11zM14 19h3v1H14zM18 19h3v1H18zM0 20h1v1H0zM2 20h5v1H2zM8 20h4v1H8zM15 20h1v1H15zM17 20h1v1H17zM19 20h6v1H19zM26,20 h3v1H26zM8 21h2v1H8zM12 21h2v1H12zM15 21h1v1H15zM18 21h1v1H18zM20 21h1v1H20zM24 21h2v1H24zM0 22h7v1H0zM8 22h3v1H8zM13 22h4v1H13zM18 22h3v1H18zM22 22h1v1H22zM24 22h3v1H24zM0 23h1v1H0zM6 23h1v1H6zM8 23h3v1H8zM12 23h2v1H12zM19 23h2v1H19zM24 23h1v1H24zM27 23h1v1H27zM0 24h1v1H0zM2 24h3v1H2zM6 24h1v1H6zM9 24h5v1H9zM15 24h2v1H15zM19 24h7v1H19zM27,24 h2v1H27zM0 25h1v1H0zM2 25h3v1H2zM6 25h1v1H6zM10 25h1v1H10zM15 25h2v1H15zM18 25h3v1H18zM25 25h2v1H25zM28,25 h1v1H28zM0 26h1v1H0zM2 26h3v1H2zM6 26h1v1H6zM9 26h4v1H9zM15 26h4v1H15zM21 26h7v1H21zM0 27h1v1H0zM6 27h1v1H6zM8 27h2v1H8zM11 27h1v1H11zM15 27h2v1H15zM21 27h1v1H21zM24 27h3v1H24zM28,27 h1v1H28zM0 28h7v1H0zM8 28h4v1H8zM17 28h1v1H17zM19 28h1v1H19zM21 28h6v1H21z"></path></svg>