<svg height="320" width="320" shapeRendering="crispEdges" viewBox="0 0 29 29" style="width: 320px; height: 320px;" xmlns="http://www.w3.org/2000/svg"><path fill="#fff" d="M0,0 h29v29H0z"></path><path fill="#000" d="M0 0h7v1H0zM8 0h1v1H8zM11 0h4v1H11zM17 0h1v1H17zM22,0 h7v1H22zM0 1h1v1H0zM6 1h1v1H6zM9 1h2v1H9zM14 1h1v1H14zM17 1h3v1H17zM22 1h1v1H22zM28,1 h1v1H28zM0 2h1v1H0zM2 2h3v1H2zM6 2h1v1H6zM10 2h1v1H10zM12 2h3v1H12zM18 2h3v1H18zM22 2h1v1H22zM24 2h3v1H24zM28,2 h1v1H28zM0 3h1v1H0zM2 3h3v1H2zM6 3h1v1H6zM12 3h2v1H12zM15 3h4v1H15zM20 3h1v1H20zM22 3h1v1H22zM24 3h3v1H24zM28,3 h1v1H28zM0 4h1v1H0zM2 4h3v1H2zM6 4h1v1H6zM9 4h1v1H9zM11 4h1v1H11zM14 4h1v1H14zM16 4h2v1H16zM19 4h1v1H19zM22 4h1v1H22zM24 4h3v1H24zM28,4 h1v1H28zM0 5h1v1H0zM6 5h1v1H6zM10 5h1v1H10zM12 5h1v1H12zM14 5h1v1H14zM18 5h1v1H18zM20 5h1v1H20zM22 5h1v1H22zM28,5 h1v1H28zM0 6h7v1H0zM8 6h1v1H8zM10 6h1v1H10zM12 6h1v1H12zM14 6h1v1H14zM16 6h1v1H16zM18 6h1v1H18zM20 6h1v1H20zM22,6 h7v1H22zM8 7h1v1H8zM10 7h2v1H10zM13 7h1v1H13zM16 7h1v1H16zM18 7h1v1H18zM20 7h1v1H20zM0 8h2v1H0zM3 8h2v1H3zM6 8h1v1H6zM9 8h3v1H9zM13 8h1v1H13zM15 8h6v1H15zM22 8h1v1H22zM28,8 h1v1H28zM2 9h1v1H2zM9 9h1v1H9zM12 9h4v1H12zM19 9h1v1H19zM21 9h1v1H21zM23 9h2v1H23zM26 9h2v1H26zM0 10h1v1H0zM3 10h1v1H3zM6 10h1v1H6zM10 10h2v1H10zM13 10h1v1H13zM15 10h4v1H15zM24 10h1v1H24zM26 10h1v1H26zM0 11h3v1H0zM8 11h6v1H8zM16 11h8v1H16zM25 11h1v1H25zM28,11 h1v1H28zM0 12h1v1H0zM4 12h1v1H4zM6 12h1v1H6zM9 12h1v1H9zM11 12h3v1H11zM16 12h1v1H16zM18 12h1v1H18zM20 12h1v1H20zM22 12h1v1H22zM28,12 h1v1H28zM0 13h1v1H0zM2 13h2v1H2zM9 13h1v1H9zM13 13h4v1H13zM20,13 h9v1H20zM2 14h1v1H2zM5 14h3v1H5zM10 14h4v1H10zM15 14h1v1H15zM17 14h6v1H17zM26 14h1v1H26zM28,14 h1v1H28zM2 15h1v1H2zM4 15h1v1H4zM7 15h2v1H7zM10 15h2v1H10zM15 15h2v1H15zM18 15h1v1H18zM23 15h1v1H23zM26 15h1v1H26zM28,15 h1v1H28zM2 16h2v1H2zM5 16h3v1H5zM10 16h1v1H10zM14 16h2v1H14zM18 16h3v1H18zM23 16h1v1H23zM25 16h1v1H25zM0 17h1v1H0zM2 17h1v1H2zM7 17h2v1H7zM10 17h6v1H10zM17 17h1v1H17zM19 17h2v1H19zM24 17h1v1H24zM26 17h2v1H26zM0 18h2v1H0zM3 18h2v1H3zM6 18h1v1H6zM11 18h1v1H11zM15 18h1v1H15zM17 18h1v1H17zM19 18h1v1H19zM24 18h2v1H24zM28,18 h1v1H28zM0 19h3v1H0zM5 19h1v1H5zM7 19h2v1H7zM12 19h1v1H12zM14 19h2v1H14zM25 19h2v1H25zM0 20h2v1H0zM3 20h5v1H3zM9 20h2v1H9zM12 20h4v1H12zM17 20h1v1H17zM20 20h8v1H20zM8 21h1v1H8zM10 21h1v1H10zM14 21h2v1H14zM18 21h1v1H18zM20 21h1v1H20zM24 21h2v1H24zM0 22h7v1H0zM9 22h1v1H9zM12 22h1v1H12zM14 22h4v1H14zM19 22h2v1H19zM22 22h1v1H22zM24 22h2v1H24zM0 23h1v1H0zM6 23h1v1H6zM9 23h2v1H9zM14 23h1v1H14zM16 23h5v1H16zM24 23h1v1H24zM0 24h1v1H0zM2 24h3v1H2zM6 24h1v1H6zM8 24h2v1H8zM13 24h4v1H13zM19 24h7v1H19zM28,24 h1v1H28zM0 25h1v1H0zM2 25h3v1H2zM6 25h1v1H6zM8 25h3v1H8zM12 25h1v1H12zM15 25h2v1H15zM18 25h1v1H18zM28,25 h1v1H28zM0 26h1v1H0zM2 26h3v1H2zM6 26h1v1H6zM14 26h3v1H14zM18 26h2v1H18zM21 26h1v1H21zM23 26h2v1H23zM26,26 h3v1H26zM0 27h1v1H0zM6 27h1v1H6zM8 27h3v1H8zM12 27h3v1H12zM21 27h1v1H21zM24 27h3v1H24zM28,27 h1v1H28zM0 28h7v1H0zM8 28h2v1H8zM11 28h2v1H11zM15 28h2v1H15zM19 28h4v1H19zM24 28h2v1H24z"></path></svg>